<svg width="266" height="266" viewBox="0 0 266 266" fill="none" xmlns="http://www.w3.org/2000/svg">
<path d="M133.96 243.794V248.694M121.86 17.2939L122.36 22.0939L121.86 17.2939ZM145.66 243.094L146.16 247.894L145.66 243.094ZM109.86 19.1939L110.86 23.9939L109.86 19.1939ZM157.06 241.194L158.06 245.994L157.06 241.194ZM98.16 22.1939L99.66 26.7939L98.16 22.1939ZM168.26 238.094L169.76 242.694L168.26 238.094ZM86.76 26.4939L88.76 30.8939L86.76 26.4939ZM179.16 233.894L181.16 238.294L179.16 233.894ZM65.76 38.4939L68.66 42.3939L65.76 38.4939ZM199.16 222.194L202.06 226.094L199.16 222.194ZM56.26 46.0939L59.56 49.6939L56.26 46.0939ZM208.16 214.794L211.46 218.394L208.16 214.794ZM47.66 54.5939L51.26 57.8939L47.66 54.5939ZM216.36 206.494L219.96 209.794L216.36 206.494ZM39.96 63.9939L43.86 66.8939L39.96 63.9939ZM223.56 197.494L227.46 200.394L223.56 197.494ZM27.66 84.8939L32.06 86.8939L27.66 84.8939ZM235.06 177.294L239.46 179.294L235.06 177.294ZM23.26 96.1939L27.86 97.6939L23.26 96.1939ZM239.16 166.394L243.76 167.894L239.16 166.394ZM20.06 107.994L24.86 108.994L20.06 107.994ZM242.16 155.194L246.96 156.194L242.16 155.194ZM18.16 119.894L22.96 120.394L18.16 119.894ZM243.86 143.694L248.66 144.194L243.86 143.694ZM17.96 144.194L22.76 143.694L17.96 144.194ZM243.76 120.394L248.56 119.894L243.76 120.394ZM19.76 156.194L24.56 155.194L19.76 156.194ZM241.86 108.994L246.66 107.994L241.86 108.994ZM22.86 167.894L27.46 166.394L22.86 167.894ZM238.76 97.6939L243.36 96.1939L238.76 97.6939ZM27.16 179.294L31.56 177.294L27.16 179.294ZM234.56 86.8939L238.96 84.8939L234.56 86.8939ZM39.16 200.294L43.06 197.394L39.16 200.294ZM222.86 66.8939L226.76 63.9939L222.86 66.8939ZM46.76 209.794L50.36 206.494L46.76 209.794ZM215.46 57.8939L219.06 54.5939L215.46 57.8939ZM55.26 218.394L58.56 214.794L55.26 218.394ZM207.16 49.6939L210.46 46.0939L207.16 49.6939ZM64.66 226.094L67.56 222.194L64.66 226.094ZM198.06 42.3939L200.96 38.4939L198.06 42.3939ZM85.56 238.294L87.56 233.894L85.56 238.294ZM177.96 30.9939L179.96 26.5939L177.96 30.9939ZM96.86 242.794L98.36 238.194L96.86 242.794ZM167.06 26.8939L168.56 22.2939L167.06 26.8939ZM108.56 245.994L109.56 241.194L108.56 245.994ZM155.76 23.8939L156.76 19.0939L155.76 23.8939ZM120.56 247.894L121.06 243.094L120.56 247.894ZM144.26 22.1939L144.76 17.3939L144.26 22.1939ZM133.96 16.7939V21.6939V16.7939Z" stroke="#C4C4C4" stroke-width="1.325" stroke-linecap="round"/>
<path d="M186.76 230.594C186.56 230.194 186.66 229.594 187.06 229.394L190.86 227.194C191.26 226.994 191.86 227.094 192.06 227.494L194.26 231.294C194.46 231.694 194.36 232.294 193.96 232.494L190.16 234.694C189.76 234.894 189.16 234.794 188.96 234.394L186.76 230.594Z" fill="#C4C4C4"/>
<path d="M73.2602 33.9941C73.0602 33.5941 73.1602 32.9941 73.5602 32.7941L77.3602 30.5941C77.7602 30.3941 78.3602 30.4941 78.5602 30.8941L80.7602 34.6941C80.9602 35.0941 80.8602 35.6941 80.4602 35.8941L76.6602 38.0941C76.2602 38.2941 75.6602 38.1941 75.4602 37.7941L73.2602 33.9941Z" fill="#C4C4C4"/>
<path d="M32.0602 77.4938C31.6602 77.2938 31.4602 76.6938 31.7602 76.2938L33.9602 72.4938C34.1602 72.0938 34.7602 71.8938 35.1602 72.1938L38.9602 74.3938C39.3602 74.5938 39.5602 75.1938 39.2602 75.5938L37.0602 79.3938C36.8602 79.7938 36.2602 79.9938 35.8602 79.6938L32.0602 77.4938Z" fill="#C4C4C4"/>
<path d="M18.0602 135.794C17.5602 135.794 17.1602 135.394 17.1602 134.894V130.494C17.1602 129.994 17.5602 129.594 18.0602 129.594H22.4602C22.9602 129.594 23.3602 129.994 23.3602 130.494V134.894C23.3602 135.394 22.9602 135.794 22.4602 135.794H18.0602Z" fill="#C4C4C4"/>
<path d="M130.66 243.994C130.66 243.494 131.06 243.094 131.56 243.094H135.96C136.46 243.094 136.86 243.494 136.86 243.994V248.394C136.86 248.894 136.46 249.294 135.96 249.294H131.56C131.06 249.294 130.66 248.894 130.66 248.394V243.994Z" fill="#C4C4C4"/>
<path d="M130.66 16.9938C130.66 16.4938 131.06 16.0938 131.56 16.0938H135.96C136.46 16.0938 136.86 16.4938 136.86 16.9938V21.3937C136.86 21.8937 136.46 22.2938 135.96 22.2938H131.56C131.06 22.2938 130.66 21.8937 130.66 21.3937V16.9938Z" fill="#C4C4C4"/>
<path d="M35.1602 193.194C34.7602 193.394 34.1602 193.294 33.9602 192.894L31.7602 189.094C31.5602 188.694 31.6602 188.094 32.0602 187.894L35.8602 185.694C36.2602 185.494 36.8602 185.594 37.0602 185.994L39.2602 189.794C39.4602 190.194 39.3602 190.794 38.9602 190.994L35.1602 193.194Z" fill="#C4C4C4"/>
<path d="M192.16 37.8938C191.96 38.2938 191.36 38.4938 190.96 38.1938L187.16 35.9938C186.76 35.7938 186.56 35.1938 186.86 34.7938L189.06 30.9938C189.26 30.5938 189.86 30.3938 190.26 30.6938L194.06 32.8938C194.46 33.0938 194.66 33.6938 194.36 34.0938L192.16 37.8938Z" fill="#C4C4C4"/>
<path d="M78.5602 234.494C78.3602 234.894 77.7602 235.094 77.3602 234.794L73.5602 232.594C73.1602 232.394 72.9602 231.794 73.2602 231.394L75.4602 227.594C75.6602 227.194 76.2602 226.994 76.6602 227.294L80.4602 229.494C80.8602 229.694 81.0602 230.294 80.7602 230.694L78.5602 234.494Z" fill="#C4C4C4"/>
<path d="M126.46 47.294V37.494C124.66 38.894 123.36 39.594 122.76 39.594C122.46 39.594 122.16 39.494 121.96 39.194C121.76 38.994 121.66 38.694 121.66 38.394C121.66 37.994 121.76 37.794 121.96 37.594C122.16 37.394 122.56 37.194 123.16 36.894C124.06 36.494 124.76 36.094 125.26 35.594C125.76 35.094 126.26 34.594 126.66 34.094C127.06 33.494 127.36 33.194 127.46 33.094C127.56 32.994 127.86 32.894 128.16 32.894C128.56 32.894 128.86 32.994 129.06 33.294C129.26 33.594 129.36 33.994 129.36 34.494V46.794C129.36 48.194 128.86 48.994 127.86 48.994C127.46 48.994 127.06 48.894 126.76 48.594C126.56 48.294 126.46 47.894 126.46 47.294Z" fill="#4B5059"/>
<path d="M138.26 46.1938H143.86C144.46 46.1938 144.86 46.2937 145.16 46.4937C145.46 46.6937 145.56 46.9937 145.56 47.3937C145.56 47.7937 145.46 48.0938 145.16 48.2938C144.96 48.4938 144.56 48.6938 144.06 48.6938H136.16C135.66 48.6938 135.16 48.5938 134.86 48.2938C134.56 47.9938 134.36 47.5938 134.36 47.1938C134.36 46.8938 134.46 46.5938 134.66 46.1938C134.86 45.7938 135.06 45.3938 135.26 45.1938C136.26 44.1938 137.06 43.3938 137.86 42.6938C138.66 41.9938 139.16 41.4938 139.56 41.2938C140.16 40.8938 140.66 40.4938 141.06 39.9938C141.46 39.5938 141.76 39.0938 141.96 38.6938C142.16 38.2938 142.26 37.7937 142.26 37.3937C142.26 36.8937 142.16 36.4938 141.96 36.1938C141.76 35.7938 141.46 35.4938 141.06 35.2938C140.66 35.0938 140.26 34.9938 139.86 34.9938C138.96 34.9938 138.16 35.3938 137.66 36.1938C137.56 36.2938 137.46 36.5938 137.26 37.0938C137.06 37.5938 136.86 37.9938 136.66 38.1938C136.46 38.4938 136.16 38.5938 135.76 38.5938C135.36 38.5938 135.06 38.4938 134.86 38.1938C134.66 37.9938 134.46 37.5938 134.46 37.1938C134.46 36.6938 134.56 36.1938 134.76 35.5938C134.96 35.0938 135.36 34.5938 135.76 34.0938C136.16 33.6937 136.76 33.2938 137.46 32.9938C138.16 32.6938 138.96 32.5938 139.86 32.5938C140.96 32.5938 141.86 32.7937 142.66 33.0938C143.16 33.2938 143.56 33.5938 143.96 33.9938C144.36 34.3938 144.66 34.8937 144.86 35.3937C145.06 35.8937 145.16 36.4938 145.16 36.9938C145.16 37.8938 144.96 38.6937 144.46 39.3937C144.06 40.0937 143.56 40.6937 143.16 41.0938C142.66 41.4938 141.96 42.1938 140.86 42.9938C139.76 43.8938 139.06 44.5938 138.66 45.0938C138.66 45.6938 138.46 45.9938 138.26 46.1938Z" fill="#4B5059"/>
<path d="M131.26 227.494C131.76 226.894 132.26 226.494 132.86 226.194C133.46 225.894 134.06 225.794 134.76 225.794C135.46 225.794 136.06 225.894 136.66 226.194C137.26 226.494 137.76 226.794 138.16 227.294C138.56 227.794 138.96 228.294 139.16 228.994C139.36 229.594 139.56 230.294 139.56 230.994C139.56 231.994 139.36 232.894 138.86 233.794C138.36 234.594 137.76 235.294 136.96 235.694C136.16 236.194 135.16 236.394 134.16 236.394C132.96 236.394 131.96 236.094 131.06 235.494C130.16 234.894 129.56 233.994 129.06 232.894C128.56 231.694 128.36 230.294 128.36 228.694C128.36 227.294 128.46 226.094 128.76 225.094C129.06 223.994 129.46 223.094 129.96 222.394C130.46 221.694 131.16 221.194 131.86 220.794C132.56 220.394 133.46 220.294 134.46 220.294C135.36 220.294 136.16 220.494 136.86 220.794C137.56 221.194 138.06 221.594 138.46 222.094C138.86 222.594 138.96 223.094 138.96 223.594C138.96 223.894 138.86 224.194 138.66 224.394C138.46 224.594 138.16 224.794 137.76 224.794C137.46 224.794 137.16 224.694 136.96 224.494C136.66 224.294 136.56 223.994 136.36 223.694C136.16 223.294 135.96 222.894 135.56 222.694C135.16 222.394 134.76 222.294 134.26 222.294C133.86 222.294 133.46 222.394 133.16 222.594C132.76 222.794 132.46 223.094 132.26 223.494C131.66 224.194 131.36 225.494 131.26 227.494ZM134.16 234.194C134.86 234.194 135.46 233.894 135.96 233.294C136.46 232.694 136.66 231.894 136.66 230.994C136.66 230.294 136.56 229.794 136.36 229.294C136.16 228.794 135.86 228.494 135.46 228.194C135.06 227.894 134.66 227.794 134.16 227.794C133.76 227.794 133.26 227.894 132.86 228.194C132.46 228.394 132.16 228.794 131.86 229.194C131.66 229.594 131.46 230.194 131.46 230.794C131.46 231.794 131.76 232.594 132.26 233.194C132.76 233.894 133.36 234.194 134.16 234.194Z" fill="#4B5059"/>
<path d="M81.0603 59.8941V50.0941C79.2603 51.4941 77.9603 52.1941 77.3603 52.1941C77.0603 52.1941 76.7603 52.0941 76.5603 51.7941C76.3603 51.5941 76.2603 51.2941 76.2603 50.9941C76.2603 50.5941 76.3603 50.3941 76.5603 50.1941C76.7603 49.9941 77.1603 49.7941 77.7603 49.4941C78.6603 49.0941 79.3603 48.6941 79.8603 48.1941C80.3603 47.6941 80.8603 47.1941 81.2603 46.6941C81.6603 46.0941 81.9603 45.7941 82.0603 45.6941C82.1603 45.5941 82.4603 45.4941 82.7603 45.4941C83.1603 45.4941 83.4603 45.5941 83.6603 45.8941C83.8603 46.1941 83.9603 46.5941 83.9603 47.0941V59.3941C83.9603 60.7941 83.4603 61.5941 82.4603 61.5941C82.0603 61.5941 81.6603 61.4941 81.3603 61.1941C81.2603 60.8941 81.0603 60.3941 81.0603 59.8941Z" fill="#4B5059"/>
<path d="M94.26 59.8941V50.0941C92.46 51.4941 91.16 52.1941 90.56 52.1941C90.26 52.1941 89.96 52.0941 89.76 51.7941C89.56 51.5941 89.46 51.2941 89.46 50.9941C89.46 50.5941 89.56 50.3941 89.76 50.1941C89.96 49.9941 90.36 49.7941 90.96 49.4941C91.86 49.0941 92.56 48.6941 93.06 48.1941C93.56 47.6941 94.06 47.1941 94.46 46.6941C94.86 46.0941 95.16 45.7941 95.26 45.6941C95.36 45.5941 95.66 45.4941 95.96 45.4941C96.36 45.4941 96.66 45.5941 96.86 45.8941C97.06 46.1941 97.16 46.5941 97.16 47.0941V59.3941C97.16 60.7941 96.66 61.5941 95.66 61.5941C95.26 61.5941 94.86 61.4941 94.56 61.1941C94.36 60.8941 94.26 60.3941 94.26 59.8941Z" fill="#4B5059"/>
<path d="M184.96 210.594H179.86L179.26 214.094C180.26 213.594 181.26 213.294 182.06 213.294C182.76 213.294 183.36 213.394 183.96 213.694C184.56 213.994 185.06 214.294 185.56 214.794C186.06 215.294 186.36 215.794 186.66 216.394C186.96 216.994 187.06 217.694 187.06 218.394C187.06 219.394 186.86 220.394 186.36 221.194C185.86 222.094 185.26 222.694 184.36 223.194C183.46 223.694 182.46 223.994 181.36 223.994C180.06 223.994 179.06 223.794 178.26 223.294C177.46 222.794 176.86 222.294 176.56 221.694C176.26 221.094 176.06 220.494 176.06 220.094C176.06 219.794 176.16 219.594 176.36 219.294C176.56 218.994 176.86 218.894 177.26 218.894C177.86 218.894 178.36 219.194 178.56 219.894C178.86 220.494 179.26 220.994 179.76 221.394C180.26 221.794 180.76 221.894 181.36 221.894C181.96 221.894 182.36 221.794 182.86 221.494C183.26 221.194 183.56 220.794 183.86 220.294C184.06 219.794 184.16 219.194 184.16 218.594C184.16 217.894 184.06 217.294 183.76 216.794C183.56 216.294 183.16 215.894 182.76 215.694C182.36 215.494 181.86 215.294 181.36 215.294C180.76 215.294 180.26 215.394 180.06 215.494C179.76 215.694 179.36 215.894 178.86 216.294C178.36 216.694 177.96 216.894 177.66 216.894C177.26 216.894 176.96 216.794 176.76 216.494C176.46 216.194 176.36 215.894 176.36 215.594C176.36 215.594 176.36 215.294 176.46 214.894L177.36 209.694C177.46 209.094 177.66 208.594 177.96 208.394C178.26 208.094 178.66 207.994 179.26 207.994H184.96C186.06 207.994 186.66 208.394 186.66 209.294C186.66 209.694 186.56 209.994 186.26 210.194C185.86 210.494 185.46 210.594 184.96 210.594Z" fill="#4B5059"/>
<path d="M47.76 94.0938V84.2938C45.96 85.6938 44.66 86.3938 44.06 86.3938C43.76 86.3938 43.46 86.2938 43.26 85.9938C43.06 85.7938 42.96 85.4938 42.96 85.1938C42.96 84.7938 43.06 84.5938 43.26 84.3938C43.46 84.1938 43.86 83.9938 44.46 83.6938C45.36 83.2938 46.06 82.8938 46.56 82.3938C47.06 81.8938 47.56 81.3938 47.96 80.8938C48.36 80.2938 48.66 79.9938 48.76 79.8938C48.86 79.7938 49.16 79.6938 49.46 79.6938C49.86 79.6938 50.16 79.7938 50.36 80.0938C50.56 80.3938 50.66 80.7938 50.66 81.2938V93.5938C50.66 94.9938 50.16 95.7938 49.16 95.7938C48.76 95.7938 48.36 95.6938 48.06 95.3938C47.96 95.0938 47.76 94.6938 47.76 94.0938Z" fill="#4B5059"/>
<path d="M66.7602 87.8938C66.7602 89.0938 66.6602 90.0938 66.5602 90.8938C66.4602 91.6938 66.1602 92.4938 65.7602 93.1938C65.2602 93.9938 64.6602 94.6938 63.8602 95.1938C63.0602 95.6938 62.2602 95.8938 61.2602 95.8938C60.1602 95.8938 59.1602 95.5938 58.3602 94.9938C57.4602 94.3938 56.8602 93.4938 56.3602 92.3938C56.1602 91.7938 55.9602 91.0938 55.8602 90.3938C55.7602 89.6938 55.6602 88.8938 55.6602 87.9938C55.6602 86.8938 55.7602 85.8938 55.8602 85.0938C55.9602 84.1938 56.1602 83.4938 56.3602 82.8938C56.7602 81.8938 57.3602 81.0938 58.1602 80.4938C58.9602 79.9938 59.9602 79.6938 61.0602 79.6938C61.7602 79.6938 62.4602 79.7938 63.0602 80.0938C63.6602 80.2938 64.1602 80.6938 64.6602 81.1938C65.1602 81.6938 65.4602 82.1938 65.8602 82.8938C66.4602 83.9938 66.7602 85.6938 66.7602 87.8938ZM63.8602 87.5938C63.8602 86.2938 63.7602 85.1938 63.6602 84.3938C63.4602 83.5938 63.2602 82.8938 62.8602 82.4938C62.4602 82.0938 61.9602 81.8938 61.2602 81.8938C60.3602 81.8938 59.6602 82.3938 59.2602 83.2938C58.8602 84.2938 58.7602 85.6938 58.7602 87.6938C58.7602 89.0938 58.8602 90.1938 58.9602 90.9938C59.1602 91.8938 59.3602 92.4938 59.7602 92.9938C60.1602 93.3938 60.6602 93.6938 61.2602 93.6938C61.9602 93.6938 62.4602 93.4938 62.8602 92.9938C63.2602 92.4938 63.4602 91.8938 63.6602 90.9938C63.7602 90.0938 63.8602 88.9938 63.8602 87.5938Z" fill="#4B5059"/>
<path d="M218.16 187.694V185.694H212.76C212.06 185.694 211.56 185.494 211.26 185.194C210.96 184.894 210.76 184.494 210.76 183.894C210.76 183.794 210.76 183.594 210.86 183.494C210.96 183.394 210.96 183.194 211.06 183.094C211.16 182.894 211.26 182.794 211.36 182.594C211.46 182.494 211.56 182.294 211.76 182.094L217.46 174.494C217.86 173.994 218.16 173.594 218.36 173.394C218.56 173.194 218.86 173.094 219.26 173.094C220.36 173.094 220.86 173.694 220.86 174.994V183.294H221.36C221.96 183.294 222.36 183.394 222.66 183.494C222.96 183.694 223.16 183.994 223.16 184.494C223.16 184.894 223.06 185.194 222.76 185.394C222.46 185.594 222.06 185.694 221.56 185.694H220.86V187.694C220.86 188.294 220.76 188.694 220.46 188.894C220.26 189.194 219.86 189.294 219.46 189.294C219.06 189.294 218.76 189.194 218.46 188.894C218.26 188.594 218.16 188.194 218.16 187.694ZM213.46 183.294H218.06V176.994L213.46 183.294Z" fill="#4B5059"/>
<path d="M42.5604 135.294C42.0604 135.894 41.5604 136.294 40.9604 136.594C40.3604 136.894 39.7604 136.994 39.0604 136.994C38.3604 136.994 37.7604 136.894 37.1604 136.594C36.5604 136.294 36.0604 135.994 35.6604 135.494C35.2604 134.994 34.8604 134.494 34.6604 133.894C34.4604 133.294 34.3604 132.594 34.3604 131.894C34.3604 131.194 34.4603 130.494 34.7603 129.794C35.0603 129.094 35.3604 128.594 35.8604 128.094C36.3604 127.594 36.9604 127.194 37.5604 126.994C38.2604 126.694 38.9603 126.594 39.7603 126.594C40.6603 126.594 41.5603 126.794 42.2603 127.094C42.9603 127.394 43.5604 127.894 44.0604 128.594C44.5604 129.194 44.9604 129.994 45.1604 130.994C45.4604 131.994 45.5604 133.094 45.5604 134.294C45.5604 135.694 45.4604 136.894 45.1604 137.994C44.8604 138.994 44.4604 139.894 43.9604 140.694C43.4604 141.394 42.7604 141.894 42.0604 142.294C41.3604 142.594 40.4604 142.794 39.5604 142.794C38.6604 142.794 37.8604 142.594 37.1604 142.294C36.4604 141.894 35.9604 141.494 35.5604 140.994C35.1604 140.494 35.0604 139.994 35.0604 139.494C35.0604 139.194 35.1604 138.894 35.3604 138.694C35.5604 138.494 35.8603 138.294 36.2603 138.294C36.5603 138.294 36.8604 138.394 37.1604 138.594C37.4604 138.794 37.5603 138.994 37.7603 139.394C37.9603 139.794 38.1604 140.194 38.5604 140.394C38.9604 140.694 39.3603 140.794 39.7603 140.794C40.1603 140.794 40.5604 140.694 40.9604 140.494C41.3604 140.294 41.6604 139.994 41.8604 139.594C42.1604 138.594 42.4604 137.294 42.5604 135.294ZM42.3604 131.994C42.3604 131.494 42.2604 131.094 42.1604 130.694C42.0604 130.294 41.8604 129.894 41.5604 129.594C41.3604 129.294 41.0604 129.094 40.6604 128.894C40.3604 128.694 39.9604 128.594 39.5604 128.594C38.8604 128.594 38.2604 128.894 37.8604 129.494C37.3604 130.094 37.1604 130.894 37.1604 131.794C37.1604 132.794 37.3604 133.494 37.8604 134.094C38.3604 134.694 38.9604 134.994 39.6604 134.994C40.0604 134.994 40.5604 134.894 40.9604 134.694C41.3604 134.494 41.6604 134.094 41.9604 133.694C42.1604 133.194 42.3604 132.594 42.3604 131.994Z" fill="#4B5059"/>
<path d="M226.86 132.894C227.56 132.894 228.06 132.694 228.56 132.294C229.06 131.894 229.26 131.394 229.26 130.594C229.26 129.994 229.06 129.594 228.66 129.194C228.26 128.794 227.76 128.594 227.16 128.594C226.76 128.594 226.36 128.694 226.06 128.794C225.76 128.894 225.56 129.094 225.36 129.294C225.16 129.494 225.06 129.794 224.86 130.094C224.76 130.394 224.56 130.694 224.46 130.994C224.36 131.194 224.26 131.294 224.06 131.394C223.86 131.494 223.66 131.494 223.46 131.494C223.16 131.494 222.86 131.394 222.66 131.194C222.46 130.994 222.26 130.694 222.26 130.294C222.26 129.894 222.36 129.494 222.56 129.094C222.76 128.694 223.16 128.294 223.56 127.894C223.96 127.494 224.56 127.194 225.16 126.994C225.76 126.794 226.56 126.694 227.36 126.694C228.06 126.694 228.66 126.794 229.26 126.994C229.86 127.194 230.36 127.494 230.76 127.794C231.16 128.194 231.46 128.594 231.76 129.094C231.96 129.594 232.06 130.094 232.06 130.594C232.06 131.294 231.86 131.894 231.56 132.494C231.26 132.994 230.76 133.494 230.26 133.994C230.86 134.294 231.26 134.594 231.66 134.994C232.06 135.394 232.36 135.794 232.56 136.294C232.76 136.794 232.86 137.294 232.86 137.794C232.86 138.494 232.76 139.094 232.46 139.694C232.16 140.294 231.86 140.894 231.26 141.294C230.76 141.794 230.16 142.094 229.46 142.394C228.76 142.694 227.96 142.794 227.16 142.794C226.26 142.794 225.56 142.594 224.86 142.294C224.16 141.994 223.66 141.594 223.16 141.094C222.76 140.594 222.36 140.194 222.16 139.694C221.96 139.194 221.86 138.794 221.86 138.494C221.86 138.094 221.96 137.694 222.26 137.494C222.56 137.194 222.86 137.094 223.26 137.094C223.46 137.094 223.66 137.194 223.86 137.294C224.06 137.394 224.16 137.594 224.26 137.694C224.66 138.694 225.06 139.394 225.46 139.894C225.86 140.394 226.46 140.594 227.26 140.594C227.66 140.594 228.16 140.494 228.56 140.294C228.96 140.094 229.36 139.794 229.56 139.294C229.86 138.894 229.96 138.394 229.96 137.794C229.96 136.994 229.76 136.294 229.26 135.794C228.76 135.294 228.16 135.094 227.36 135.094C227.26 135.094 226.96 135.094 226.66 135.094C226.36 135.094 226.16 135.094 226.06 135.094C225.66 135.094 225.36 134.994 225.16 134.794C224.96 134.594 224.86 134.294 224.86 133.994C224.86 133.694 224.96 133.394 225.26 133.194C225.56 132.994 225.86 132.894 226.46 132.894H226.86Z" fill="#4B5059"/>
<path d="M47.7604 177.394C47.7604 176.694 47.9604 175.994 48.3604 175.394C48.7604 174.794 49.3604 174.194 50.0604 173.894C50.8604 173.494 51.6604 173.294 52.7604 173.294C53.6604 173.294 54.3604 173.394 55.0604 173.594C55.6604 173.794 56.2604 174.094 56.6604 174.494C57.0604 174.894 57.4604 175.294 57.6604 175.794C57.8604 176.294 57.9604 176.794 57.9604 177.394C57.9604 178.094 57.7604 178.694 57.4604 179.294C57.0604 179.894 56.5604 180.294 55.8604 180.694C56.4604 180.894 56.9604 181.194 57.3604 181.594C57.7604 181.994 58.0604 182.394 58.2604 182.894C58.4604 183.394 58.5604 183.994 58.5604 184.594C58.5604 185.494 58.3604 186.294 57.8604 187.094C57.4604 187.794 56.7604 188.394 55.9604 188.794C55.1604 189.194 54.1604 189.394 52.9604 189.394C51.7604 189.394 50.7604 189.194 49.8604 188.794C49.0604 188.394 48.3604 187.794 47.9604 187.094C47.5604 186.394 47.3604 185.494 47.3604 184.594C47.3604 182.694 48.2604 181.294 50.0604 180.594C48.5604 179.994 47.7604 178.894 47.7604 177.394ZM55.4604 184.594C55.4604 183.994 55.3604 183.594 55.1604 183.094C54.9604 182.694 54.5604 182.394 54.1604 182.094C53.7604 181.894 53.2604 181.794 52.7604 181.794C52.0604 181.794 51.4604 181.994 50.9604 182.494C50.4604 182.994 50.2604 183.694 50.2604 184.494C50.2604 185.094 50.3604 185.594 50.5604 185.994C50.7604 186.394 51.1604 186.794 51.5604 186.994C51.9604 187.194 52.4604 187.294 52.8604 187.294C53.3604 187.294 53.8604 187.194 54.2604 186.894C54.6604 186.694 54.9604 186.294 55.1604 185.894C55.3604 185.594 55.4604 185.094 55.4604 184.594ZM52.8604 175.394C52.1604 175.394 51.6604 175.594 51.2604 175.994C50.8604 176.394 50.6604 176.994 50.6604 177.594C50.6604 178.194 50.8604 178.694 51.2604 179.094C51.6604 179.494 52.2604 179.694 52.8604 179.694C53.1604 179.694 53.4604 179.594 53.7604 179.494C54.0604 179.394 54.2604 179.194 54.4604 179.094C54.6604 178.894 54.8604 178.694 54.9604 178.394C55.0604 178.094 55.1604 177.794 55.1604 177.494C55.1604 177.094 55.0604 176.694 54.8604 176.394C54.6604 176.094 54.3604 175.794 54.0604 175.594C53.6604 175.494 53.2604 175.394 52.8604 175.394Z" fill="#4B5059"/>
<path d="M213.36 93.0941H218.96C219.56 93.0941 219.96 93.1941 220.26 93.3941C220.56 93.5941 220.66 93.8941 220.66 94.2941C220.66 94.6941 220.56 94.9941 220.26 95.1941C220.06 95.3941 219.66 95.5941 219.16 95.5941H211.26C210.76 95.5941 210.26 95.4941 209.96 95.1941C209.66 94.8941 209.46 94.4941 209.46 94.0941C209.46 93.7941 209.56 93.4941 209.76 93.0941C209.96 92.6941 210.16 92.2941 210.36 92.0941C211.36 91.0941 212.16 90.2941 212.96 89.5941C213.76 88.8941 214.26 88.3941 214.66 88.1941C215.26 87.7941 215.76 87.3941 216.16 86.8941C216.56 86.4941 216.86 85.9941 217.06 85.5941C217.26 85.1941 217.36 84.6941 217.36 84.2941C217.36 83.7941 217.26 83.3941 217.06 83.0941C216.86 82.6941 216.56 82.3941 216.16 82.1941C215.76 81.9941 215.36 81.8941 214.96 81.8941C214.06 81.8941 213.26 82.2941 212.76 83.0941C212.66 83.1941 212.56 83.4941 212.36 83.9941C212.16 84.4941 211.96 84.8941 211.76 85.0941C211.56 85.3941 211.26 85.4941 210.86 85.4941C210.46 85.4941 210.16 85.3941 209.96 85.0941C209.76 84.8941 209.56 84.4941 209.56 84.0941C209.56 83.5941 209.66 83.0941 209.86 82.4941C210.06 81.9941 210.46 81.4941 210.86 80.9941C211.26 80.5941 211.86 80.1941 212.56 79.8941C213.26 79.5941 214.06 79.4941 214.96 79.4941C216.06 79.4941 216.96 79.6941 217.76 79.9941C218.26 80.1941 218.66 80.4941 219.06 80.8941C219.46 81.2941 219.76 81.7941 219.96 82.2941C220.16 82.7941 220.26 83.3941 220.26 83.8941C220.26 84.7941 220.06 85.5941 219.56 86.2941C219.16 86.9941 218.66 87.5941 218.26 87.9941C217.76 88.3941 217.06 89.0941 215.96 89.8941C214.86 90.7941 214.16 91.4941 213.76 91.9941C213.76 92.5941 213.56 92.7941 213.36 93.0941Z" fill="#4B5059"/>
<path d="M82.7601 207.894H89.9601C90.6601 207.894 91.1601 207.994 91.4601 208.194C91.7601 208.394 91.9601 208.794 91.9601 209.294C91.9601 209.594 91.7601 209.994 91.3601 210.494C90.9601 210.994 90.5601 211.494 90.1601 212.194C89.6601 212.794 89.2601 213.494 88.7601 214.394C88.2601 215.294 87.8601 216.394 87.4601 217.694C87.2601 218.294 87.1601 218.694 87.0601 219.094C86.9601 219.494 86.8601 219.994 86.8601 220.594C86.7601 221.194 86.6601 221.694 86.6601 221.994C86.4601 222.694 86.2601 223.194 86.0601 223.494C85.7601 223.794 85.4601 223.894 84.9601 223.894C84.5601 223.894 84.1601 223.694 83.8601 223.394C83.5601 223.094 83.4601 222.594 83.4601 221.994C83.4601 221.494 83.5601 220.894 83.7601 220.094C83.9601 219.294 84.2601 218.394 84.6601 217.294C85.0601 216.194 85.6601 215.094 86.2601 213.894C86.9601 212.694 87.6601 211.594 88.6601 210.394H82.8601C82.2601 210.394 81.7601 210.294 81.4601 210.094C81.1601 209.894 81.0601 209.494 81.0601 209.094C81.0601 208.594 81.2601 208.294 81.5601 208.094C81.7601 207.894 82.1601 207.894 82.7601 207.894Z" fill="#4B5059"/>
<path d="M179.16 59.8941V50.0941C177.36 51.4941 176.06 52.1941 175.46 52.1941C175.16 52.1941 174.86 52.0941 174.66 51.7941C174.46 51.5941 174.36 51.2941 174.36 50.9941C174.36 50.5941 174.46 50.3941 174.66 50.1941C174.86 49.9941 175.26 49.7941 175.86 49.4941C176.76 49.0941 177.46 48.6941 177.96 48.1941C178.46 47.6941 178.96 47.1941 179.36 46.6941C179.76 46.0941 180.06 45.7941 180.16 45.6941C180.26 45.5941 180.56 45.4941 180.86 45.4941C181.26 45.4941 181.56 45.5941 181.76 45.8941C181.96 46.1941 182.06 46.5941 182.06 47.0941V59.3941C182.06 60.7941 181.56 61.5941 180.56 61.5941C180.16 61.5941 179.76 61.4941 179.46 61.1941C179.26 60.8941 179.16 60.3941 179.16 59.8941Z" fill="#4B5059"/>
<path fill-rule="evenodd" clip-rule="evenodd" d="M133.36 256.394C201.66 256.394 257.06 200.994 257.06 132.694C257.06 64.3938 201.66 8.99385 133.36 8.99385C65.0603 8.99385 9.66035 64.3938 9.66035 132.694C9.66035 200.994 65.0603 256.394 133.36 256.394ZM133.36 265.194C206.56 265.194 265.86 205.894 265.86 132.694C265.86 59.4939 206.56 0.193848 133.36 0.193848C60.1604 0.193848 0.860352 59.4939 0.860352 132.694C0.860352 205.894 60.1604 265.194 133.36 265.194Z" fill="#7F7F7F"/>
<path d="M196.96 163.494L198.16 162.994L196.96 163.494ZM200.76 173.094L199.56 173.594L200.76 173.094ZM193.46 166.394L192.76 167.494L193.86 168.194L194.56 167.094L193.46 166.394ZM135.96 130.194L136.66 129.094L135.56 128.394L134.86 129.494L135.96 130.194ZM132.26 136.194L131.16 135.494L130.46 136.594L131.66 137.294L132.26 136.194ZM190.76 170.894L191.86 171.594L192.56 170.494L191.36 169.794L190.76 170.894ZM189.76 175.294L189.86 176.594L189.76 175.294ZM199.96 174.294L199.86 172.994L199.96 174.294ZM195.66 163.994L199.46 173.594L201.96 172.594L198.16 162.994L195.66 163.994ZM196.46 164.094C196.26 164.394 195.76 164.394 195.66 163.994L198.16 162.994C197.46 161.294 195.16 161.094 194.26 162.694L196.46 164.094ZM194.66 167.094L196.46 164.094L194.16 162.694L192.36 165.694L194.66 167.094ZM135.26 131.294L192.86 167.494L194.26 165.294L136.66 129.094L135.26 131.294ZM133.36 136.894L137.06 130.894L134.76 129.494L131.06 135.494L133.36 136.894ZM191.36 169.794L132.86 135.094L131.46 137.394L189.96 172.094L191.36 169.794ZM190.06 174.594L191.86 171.594L189.56 170.194L187.76 173.194L190.06 174.594ZM189.56 173.994C189.96 173.994 190.16 174.394 189.96 174.694L187.66 173.294C186.76 174.894 187.96 176.794 189.76 176.694L189.56 173.994ZM199.86 172.994L189.56 173.994L189.76 176.594L200.06 175.594L199.86 172.994ZM199.46 173.594C199.36 173.294 199.56 172.994 199.86 172.994L200.06 175.594C201.56 175.494 202.46 173.994 201.86 172.594L199.46 173.594Z" fill="white"/>
<path d="M90.46 150.494L100.26 153.794C102.76 154.194 103.96 152.294 103.36 150.694C102.76 149.094 102.56 148.594 102.56 148.594L138.66 135.394L135.16 126.394L99.66 141.294C99.66 141.294 99.46 140.894 98.86 139.194C98.26 137.594 96.06 136.994 94.56 138.994L89.56 147.994C88.96 148.994 89.46 150.194 90.46 150.494Z" fill="white"/>
<path fill-rule="evenodd" clip-rule="evenodd" d="M91.1602 149.594L101.06 152.294C101.76 152.494 102.36 151.794 102.16 151.094L97.6602 139.594C97.3602 138.894 96.4602 138.794 96.0602 139.494L90.6602 148.294C90.2602 148.794 90.5602 149.494 91.1602 149.594ZM135.56 127.594L98.8602 142.894L100.76 147.794L138.06 134.094L135.56 127.594Z" fill="#9E4DDB"/>
<path fill-rule="evenodd" clip-rule="evenodd" d="M200.76 173.094L196.96 163.494C196.66 162.794 195.76 162.694 195.36 163.394L193.56 166.394L135.96 130.194L132.26 136.194L190.76 170.894L188.96 173.894C188.56 174.494 189.06 175.294 189.76 175.194L200.06 174.194C200.56 174.194 200.96 173.594 200.76 173.094Z" fill="#D73277"/>
<path d="M133.36 141.494C138.22 141.494 142.16 137.554 142.16 132.694C142.16 127.834 138.22 123.894 133.36 123.894C128.5 123.894 124.56 127.834 124.56 132.694C124.56 137.554 128.5 141.494 133.36 141.494Z" fill="#848991"/>
<path d="M133.36 139.294C137.005 139.294 139.96 136.339 139.96 132.694C139.96 129.049 137.005 126.094 133.36 126.094C129.715 126.094 126.76 129.049 126.76 132.694C126.76 136.339 129.715 139.294 133.36 139.294Z" fill="#F5F5F5"/>
<path d="M213.46 93.0941H219.06C219.66 93.0941 220.06 93.1941 220.36 93.3941C220.66 93.5941 220.76 93.8941 220.76 94.2941C220.76 94.6941 220.66 94.9941 220.36 95.1941C220.16 95.3941 219.76 95.5941 219.26 95.5941H211.36C210.86 95.5941 210.36 95.4941 210.06 95.1941C209.76 94.8941 209.56 94.4941 209.56 94.0941C209.56 93.7941 209.66 93.4941 209.86 93.0941C210.06 92.6941 210.26 92.2941 210.46 92.0941C211.46 91.0941 212.26 90.2941 213.06 89.5941C213.86 88.8941 214.36 88.3941 214.66 88.1941C215.26 87.7941 215.76 87.3941 216.16 86.8941C216.56 86.4941 216.86 85.9941 217.06 85.5941C217.26 85.1941 217.36 84.6941 217.36 84.2941C217.36 83.7941 217.26 83.3941 217.06 83.0941C216.86 82.6941 216.56 82.3941 216.16 82.1941C215.76 81.9941 215.36 81.8941 214.96 81.8941C214.06 81.8941 213.26 82.2941 212.76 83.0941C212.66 83.1941 212.56 83.4941 212.36 83.9941C212.16 84.4941 211.96 84.8941 211.76 85.0941C211.56 85.3941 211.26 85.4941 210.86 85.4941C210.46 85.4941 210.16 85.3941 209.96 85.0941C209.76 84.8941 209.56 84.4941 209.56 84.0941C209.56 83.5941 209.66 83.0941 209.86 82.4941C210.06 81.9941 210.46 81.4941 210.86 80.9941C211.26 80.5941 211.86 80.1941 212.56 79.8941C213.26 79.5941 214.06 79.4941 214.96 79.4941C216.06 79.4941 216.96 79.6941 217.76 79.9941C218.26 80.1941 218.66 80.4941 219.06 80.8941C219.46 81.2941 219.76 81.7941 219.96 82.2941C220.16 82.7941 220.26 83.3941 220.26 83.8941C220.26 84.7941 220.06 85.5941 219.56 86.2941C219.16 86.9941 218.66 87.5941 218.26 87.9941C217.76 88.3941 217.06 89.0941 215.96 89.8941C214.86 90.7941 214.16 91.4941 213.76 91.9941C213.86 92.5941 213.66 92.7941 213.46 93.0941Z" fill="#4B5059"/>
<path d="M228.66 190.994C228.26 190.794 228.06 190.194 228.36 189.794L230.56 185.994C230.76 185.594 231.36 185.394 231.76 185.694L235.56 187.894C235.96 188.094 236.16 188.694 235.86 189.094L233.66 192.894C233.46 193.294 232.86 193.494 232.46 193.194L228.66 190.994Z" fill="#C4C4C4"/>
<path d="M245.06 135.794C244.56 135.794 244.16 135.394 244.16 134.894V130.494C244.16 129.994 244.56 129.594 245.06 129.594H249.46C249.96 129.594 250.36 129.994 250.36 130.494V134.894C250.36 135.394 249.96 135.794 249.46 135.794H245.06Z" fill="#C4C4C4"/>
<path d="M231.76 79.6938C231.36 79.8938 230.76 79.7937 230.56 79.3937L228.36 75.5938C228.16 75.1938 228.26 74.5937 228.66 74.3937L232.46 72.1938C232.86 71.9938 233.46 72.0937 233.66 72.4937L235.86 76.2937C236.06 76.6937 235.96 77.2937 235.56 77.4937L231.76 79.6938Z" fill="#C4C4C4"/>
</svg>
